<svg width="171" height="161" viewBox="0 0 171 161" fill="none" xmlns="http://www.w3.org/2000/svg">
<path d="M146.241 117.609C146.041 119.542 147.004 121.918 145.531 123.185C144.649 123.944 143.26 123.851 142.373 124.604C140.878 125.876 141.867 128.326 143.111 129.845C144.355 131.363 145.878 133.246 145.106 135.051C144.715 135.967 143.815 136.554 143.243 137.369C141.972 139.179 142.584 141.769 143.917 143.534C147.354 148.082 154.552 148.356 159.385 145.334C161.138 144.238 162.73 142.693 163.306 140.708C163.883 138.722 163.165 136.274 161.313 135.354C160.565 134.982 159.604 134.796 159.249 134.04C158.642 132.745 160.349 131.689 161.411 130.733C163.42 128.926 163.255 125.268 161.092 123.649C160.175 122.962 158.935 122.54 158.504 121.48C158.198 120.728 158.407 119.879 158.421 119.068C158.522 112.927 146.893 111.278 146.241 117.609Z" fill="#5BB59B"/>
<path d="M152.344 121.445H152.028V146.801H152.344V121.445Z" fill="#0090FF"/>
<path d="M152.178 131.46L146.807 126.949L147.011 126.707L152.194 131.06L158.637 126.487L158.821 126.746L152.178 131.46Z" fill="#0090FF"/>
<path d="M152.178 142.226L146.807 137.714L147.011 137.472L152.194 141.826L158.637 137.252L158.821 137.511L152.178 142.226Z" fill="#0090FF"/>
<path d="M19.4568 59.7132C19.0971 63.2037 20.8353 67.4959 18.1755 69.7847C16.5827 71.1555 14.0729 70.9874 12.4713 72.349C9.76982 74.6459 11.5559 79.0708 13.803 81.8139C16.0502 84.5571 18.802 87.9576 17.4081 91.2183C16.7014 92.8728 15.0751 93.9321 14.0415 95.4046C11.7461 98.6756 12.8522 103.353 15.2607 106.541C21.4675 114.756 34.4687 115.25 43.1997 109.792C46.3664 107.812 49.2406 105.022 50.2824 101.435C51.3237 97.8486 50.0269 93.4274 46.6825 91.7657C45.3307 91.0939 43.5945 90.7577 42.954 89.3916C41.8582 87.054 44.9411 85.1461 46.8603 83.4191C50.488 80.1548 50.1899 73.5471 46.2831 70.6225C44.6281 69.3838 42.3876 68.621 41.6095 66.7059C41.0574 65.3475 41.4337 63.8153 41.4578 62.3489C41.6413 51.2567 20.6354 48.2766 19.4568 59.7132Z" fill="#63A590"/>
<path d="M30.4812 66.6417H29.9092V140.418H30.4812V66.6417Z" fill="#0090FF"/>
<path d="M30.1806 84.7324L20.4797 76.5832L20.8477 76.1453L30.2104 84.0097L41.8491 75.7495L42.1806 76.2162L30.1806 84.7324Z" fill="#0090FF"/>
<path d="M30.1806 104.177L20.4797 96.0281L20.8477 95.5902L30.2104 103.455L41.8491 95.1945L42.1806 95.6612L30.1806 104.177Z" fill="#0090FF"/>
<mask id="mask0_344_1248" style="mask-type:luminance" maskUnits="userSpaceOnUse" x="40" y="0" width="16" height="14">
<path d="M45.4439 13.0055L40.7605 13.1587C40.5991 6.63781 45.1366 1.25077 50.8896 1.12125L55.573 0.968079C49.82 1.09709 45.2831 6.48465 45.4439 13.0055Z" fill="white"/>
</mask>
<g mask="url(#mask0_344_1248)">
<path d="M45.4439 13.0054L40.7605 13.1586C40.7081 11.0466 41.1491 9.05342 41.9643 7.31925L46.6477 7.16608C45.8325 8.90025 45.392 10.8935 45.4439 13.0054Z" fill="#0090FF"/>
<path d="M46.6475 7.16613L41.9641 7.3193C42.6215 5.92127 43.522 4.69182 44.6039 3.70395L49.2873 3.55078C48.2054 4.53865 47.3049 5.7681 46.6475 7.16613Z" fill="#0090FF"/>
<path d="M49.2874 3.55077L44.604 3.70394C46.3238 2.13424 48.502 1.17464 50.8895 1.12119L55.5729 0.968018C53.1854 1.02147 51.0072 1.98107 49.2874 3.55077Z" fill="#0090FF"/>
</g>
<path d="M48.5399 138.307L43.8565 138.46L40.7603 13.1583L45.4437 13.0056L48.5399 138.307Z" fill="#0090FF"/>
<mask id="mask1_344_1248" style="mask-type:luminance" maskUnits="userSpaceOnUse" x="43" y="138" width="17" height="13">
<path d="M59.2525 149.876L54.5691 150.03C48.8161 150.159 44.0176 144.977 43.8567 138.46L48.5401 138.307C48.701 144.824 53.4995 150.006 59.2525 149.876Z" fill="white"/>
</mask>
<g mask="url(#mask1_344_1248)">
<path d="M59.2525 149.876L54.5691 150.03C48.8161 150.159 44.0176 144.977 43.8567 138.46L48.5401 138.307C48.701 144.824 53.4995 150.006 59.2525 149.876Z" fill="#0090FF"/>
</g>
<path d="M101.14 24.6956L101.24 28.7396L81.2426 29.1888L81.1423 25.1448L101.14 24.6956Z" fill="#AFC6F5"/>
<path d="M74.5037 23.6101C76.4414 23.5664 78.0708 25.3263 78.1247 27.521L78.5411 44.3729C78.595 46.5676 77.0546 48.3938 75.1169 48.4375L57.548 48.8322C55.6103 48.8759 53.9815 47.1207 53.927 44.926L53.5107 28.074C53.4567 25.8793 54.9971 24.0485 56.9343 24.0054L74.5037 23.6101Z" fill="#F6A091"/>
<path d="M105.378 17.1422L108.156 129.569L52.4343 130.82L49.6562 18.3937L105.378 17.1422ZM104.619 118.812L103.522 74.3869L54.6825 75.4837L55.7803 119.91L104.619 118.812ZM53.5111 28.0735L53.9274 44.9254C53.9819 47.1201 55.6107 48.8754 57.5484 48.8317L75.1169 48.437C77.0546 48.3933 78.595 46.5671 78.541 44.3724L78.1247 27.5205C78.0707 25.3258 76.4414 23.5664 74.5037 23.6101L56.9347 24.0048C54.9975 24.048 53.4566 25.8788 53.5111 28.0735ZM104.03 68.3358L103.93 64.2923L54.4337 65.404L54.5334 69.4475L104.03 68.3358ZM103.847 60.9308L103.747 56.8873L54.2507 57.9991L54.3504 62.0426L103.847 60.9308ZM81.3252 32.5498L81.425 36.5933L101.422 36.1441L101.323 32.1006L81.3252 32.5498ZM81.1423 25.1448L81.242 29.1883L101.239 28.7391L101.14 24.6956L81.1423 25.1448Z" fill="white"/>
<path d="M101.323 32.1011L101.423 36.1446L81.4257 36.5938L81.3254 32.5498L101.323 32.1011Z" fill="#AFC6F5"/>
<path d="M79.9631 4.53365C80.474 4.52234 80.9022 4.9839 80.9165 5.56727C80.9309 6.14601 80.5264 6.62659 80.0155 6.63841C79.5005 6.64971 79.0729 6.18816 79.0585 5.6089C79.0436 5.02604 79.4481 4.54547 79.9631 4.53365Z" fill="#0090FF"/>
<path d="M85.0855 9.51051C85.4063 9.50331 85.6751 9.79371 85.6843 10.1571C85.6936 10.5205 85.4392 10.8227 85.1179 10.8299L75.121 11.0545C74.8003 11.0617 74.5314 10.7713 74.5222 10.4079C74.5135 10.0445 74.7674 9.74231 75.0886 9.73512L85.0855 9.51051Z" fill="#0090FF"/>
<path d="M81.0025 133.551C83.5698 133.493 85.7209 135.811 85.7928 138.723C85.8648 141.632 83.8309 144.044 81.2636 144.101C78.6963 144.159 76.5452 141.841 76.4738 138.933C76.4013 136.02 78.4346 133.608 81.0025 133.551Z" fill="white"/>
<path d="M69.9978 9.23443C70.5961 9.22107 71.0972 9.76229 71.1136 10.4397C71.1306 11.1218 70.6567 11.6805 70.0584 11.6938C69.4602 11.7072 68.959 11.1706 68.9426 10.4886C68.9256 9.81061 69.3995 9.2478 69.9978 9.23443Z" fill="#0090FF"/>
<path d="M103.522 74.3868L104.62 118.812L55.7805 119.909L54.6826 75.4837L103.522 74.3868Z" fill="#AFC6F5"/>
<path d="M98.5673 0.00235955C104.32 -0.12665 109.119 5.0507 109.28 11.5716L112.376 136.874C112.537 143.39 108 148.782 102.247 148.911L59.2523 149.877C53.4993 150.006 48.7007 144.825 48.5398 138.308L45.4436 13.0056C45.2822 6.4847 49.8197 1.09766 55.5727 0.968135L98.5673 0.00235955ZM108.514 129.951L105.717 16.7438L49.3021 18.0108L52.0992 131.218L108.514 129.951ZM81.2728 144.492C84.0303 144.43 86.2142 141.839 86.1371 138.716C86.06 135.588 83.7507 133.098 80.9927 133.16C78.2352 133.222 76.0513 135.813 76.1283 138.941C76.2054 142.064 78.5148 144.554 81.2728 144.492ZM75.0886 9.73512C74.7678 9.74232 74.5134 10.0445 74.5227 10.4079C74.5319 10.7713 74.8002 11.0617 75.1215 11.0545L85.1184 10.8299C85.4391 10.8227 85.6936 10.5205 85.6843 10.1571C85.6756 9.79371 85.4068 9.50332 85.0855 9.51051L75.0886 9.73512ZM69.9976 9.2345C69.3993 9.24787 68.9254 9.81068 68.9424 10.4886C68.9593 11.1707 69.4599 11.7073 70.0582 11.6939C70.6565 11.6805 71.1304 11.1218 71.1134 10.4398C71.097 9.76185 70.5958 9.22114 69.9976 9.2345ZM79.9632 4.53363C79.4482 4.54493 79.0437 5.02551 79.058 5.60939C79.0724 6.18814 79.5001 6.6502 80.0151 6.63838C80.526 6.62708 80.9305 6.1465 80.9161 5.56724C80.9017 4.98387 80.4741 4.52232 79.9632 4.53363Z" fill="#0D62F9"/>
<path d="M103.747 56.8873L103.847 60.9308L54.3504 62.0426L54.2507 57.9991L103.747 56.8873Z" fill="#AFC6F5"/>
<path d="M103.93 64.2922L104.03 68.3357L54.5333 69.4475L54.4336 65.404L103.93 64.2922Z" fill="#AFC6F5"/>
<path d="M129.941 161C150.603 161 167.352 158.432 167.352 155.263C167.352 152.095 150.603 149.527 129.941 149.527C109.28 149.527 92.5305 152.095 92.5305 155.263C92.5305 158.432 109.28 161 129.941 161Z" fill="#E0E4ED"/>
<path d="M144.674 86.2018L142.662 71.2126C142.662 71.2126 129.669 69.0204 125.462 63.8153C121.535 58.9567 119.217 54.7518 119.217 54.7518L112.733 59.74C112.733 59.74 119.716 77.1984 133.184 83.6828" fill="#E26356"/>
<path d="M115.645 40.0651L112.168 39.7197C112.058 39.7089 111.947 39.7048 111.835 39.7084C111.825 39.7084 111.814 39.7115 111.805 39.712C111.657 39.7182 111.508 39.7341 111.357 39.766L97.6752 42.6469C97.6217 42.6582 97.5683 42.671 97.5154 42.6854C97.485 42.6936 97.4562 42.708 97.4264 42.7173C97.3416 42.7435 97.2578 42.7728 97.1756 42.8067C97.1247 42.8273 97.0738 42.8483 97.024 42.8715C96.9392 42.911 96.8564 42.9563 96.7742 43.0041C96.7423 43.0226 96.7089 43.0359 96.6771 43.0555C96.6657 43.0627 96.656 43.0719 96.6447 43.0791C96.5136 43.1629 96.3861 43.2539 96.2633 43.3562C96.2458 43.3705 96.2299 43.3875 96.2129 43.4024C96.1076 43.4929 96.0058 43.59 95.9071 43.6933C95.8706 43.7319 95.8357 43.7725 95.7997 43.8126C95.721 43.901 95.645 43.993 95.5715 44.0891C95.5376 44.1333 95.5041 44.1765 95.4712 44.2222C95.388 44.3384 95.3088 44.4597 95.2333 44.5851C95.2199 44.6072 95.2045 44.6267 95.1916 44.6488C95.1886 44.654 95.1865 44.6591 95.1834 44.6642C95.0966 44.8138 95.0159 44.9695 94.9403 45.1304C94.9197 45.1736 94.9023 45.2193 94.8827 45.2635C94.8293 45.3838 94.7789 45.5061 94.7321 45.6321C94.7229 45.6567 94.7111 45.6804 94.7023 45.7056C94.6941 45.7287 94.69 45.7539 94.6818 45.777C94.5995 46.016 94.5271 46.2617 94.4705 46.5151C94.4685 46.5249 94.4649 46.5336 94.4623 46.5434C94.4572 46.5675 94.4556 46.5937 94.4505 46.6179C94.4073 46.825 94.3739 47.0363 94.3492 47.2506C94.3456 47.2799 94.3384 47.3071 94.3353 47.3364C94.3338 47.3503 94.3348 47.3652 94.3333 47.3791C94.3107 47.614 94.3004 47.852 94.3014 48.0925C94.3014 48.1141 94.2983 48.1352 94.2983 48.1573C94.2999 48.2683 94.304 48.3793 94.3107 48.4908L95.4599 67.3776C95.4712 67.5657 95.4928 67.7482 95.5185 67.9276C95.5216 67.9486 95.5221 67.9718 95.5257 67.9928C95.5334 68.0422 95.5437 68.089 95.5525 68.1373C95.5627 68.1943 95.5725 68.2514 95.5838 68.3074C95.5997 68.3866 95.6182 68.4637 95.6373 68.5408C95.6501 68.5937 95.6624 68.6472 95.6768 68.6991C95.6989 68.7787 95.7231 68.8563 95.7483 68.934C95.7632 68.9802 95.7766 69.027 95.792 69.0722C95.8233 69.1632 95.8583 69.2511 95.8937 69.3385C95.9056 69.3672 95.9158 69.3976 95.9277 69.4258C95.9765 69.5405 96.0289 69.652 96.0844 69.7594C96.0973 69.7846 96.1117 69.8077 96.125 69.8324C96.1687 69.9136 96.2129 69.9938 96.2602 70.0709C96.2828 70.1074 96.3065 70.1413 96.3301 70.1768C96.3707 70.239 96.4113 70.3006 96.454 70.3592C96.4812 70.3967 96.51 70.4322 96.5383 70.4682C96.5794 70.5211 96.621 70.5736 96.6642 70.6239C96.695 70.6599 96.7269 70.6938 96.7588 70.7277C96.8019 70.7745 96.8456 70.8203 96.8904 70.8639C96.9238 70.8963 96.9577 70.9277 96.9921 70.959C97.0373 71.0002 97.0836 71.0392 97.1304 71.0773C97.1658 71.106 97.2018 71.1343 97.2383 71.1615C97.2861 71.197 97.3349 71.2309 97.3843 71.2633C97.4213 71.288 97.4588 71.3121 97.4968 71.3353C97.5477 71.3656 97.5991 71.3934 97.6516 71.4206C97.6896 71.4406 97.7276 71.4612 97.7662 71.4792C97.8212 71.5049 97.8772 71.5265 97.9332 71.5486C97.9702 71.563 98.0072 71.5789 98.0453 71.5918C98.108 71.6133 98.1722 71.6298 98.2365 71.6462C98.2689 71.6545 98.3007 71.6653 98.3331 71.6725C98.4287 71.693 98.5253 71.7089 98.6235 71.7192C98.6256 71.7192 98.6271 71.7197 98.6291 71.7202L102.107 72.0656C102.007 72.0559 101.908 72.0394 101.811 72.0178C101.779 72.0107 101.747 72.0004 101.716 71.9921C101.651 71.9752 101.586 71.9582 101.523 71.9366C101.485 71.9238 101.449 71.9084 101.412 71.894C101.356 71.8719 101.299 71.8498 101.244 71.8236C101.206 71.8056 101.168 71.7855 101.13 71.766C101.078 71.7387 101.025 71.7105 100.974 71.6802C100.937 71.6575 100.9 71.6334 100.863 71.6087C100.814 71.5758 100.765 71.5424 100.716 71.5064C100.68 71.4792 100.644 71.4514 100.608 71.4226C100.562 71.3846 100.515 71.345 100.47 71.3039C100.436 71.2731 100.402 71.2417 100.368 71.2094C100.324 71.1657 100.28 71.1199 100.237 71.0731C100.205 71.0387 100.173 71.0048 100.142 70.9693C100.099 70.9195 100.058 70.867 100.017 70.8141C99.9886 70.7776 99.9598 70.7421 99.9326 70.7046C99.8899 70.646 99.8499 70.5843 99.8098 70.5232C99.7861 70.4872 99.762 70.4528 99.7394 70.4163C99.6921 70.3392 99.6474 70.2585 99.6037 70.1768C99.5908 70.1526 99.5764 70.1295 99.5636 70.1048C99.5081 69.9969 99.4556 69.8858 99.4068 69.7707C99.395 69.7424 99.3847 69.7121 99.3729 69.6833C99.3374 69.596 99.3025 69.5081 99.2711 69.4171C99.2552 69.3719 99.2418 69.3251 99.2274 69.2788C99.2028 69.2012 99.1781 69.1241 99.1565 69.0439C99.1421 68.992 99.1298 68.9386 99.1169 68.8856C99.0979 68.8085 99.0794 68.7314 99.0635 68.6523C99.0522 68.5963 99.0424 68.5392 99.0321 68.4822C99.0198 68.4128 99.0085 68.3429 98.9987 68.2725C98.973 68.0926 98.9514 67.9101 98.9401 67.7225L97.7908 48.8357C97.7826 48.7021 97.7821 48.57 97.7816 48.4374C97.7806 48.1974 97.7908 47.9589 97.8135 47.724C97.8176 47.6808 97.8243 47.6387 97.8289 47.5955C97.8536 47.3811 97.887 47.1699 97.9301 46.9622C97.9373 46.9283 97.9425 46.8939 97.9502 46.8605C98.0067 46.6071 98.0792 46.3609 98.1614 46.1219C98.1779 46.0736 98.1938 46.0253 98.2118 45.9775C98.2586 45.8515 98.3089 45.7292 98.3624 45.6089C98.3819 45.5647 98.3994 45.5195 98.42 45.4763C98.4955 45.3155 98.5762 45.1597 98.6631 45.0102C98.679 44.9829 98.6965 44.9582 98.7124 44.932C98.7885 44.8061 98.8676 44.6848 98.9509 44.5681C98.9833 44.5229 99.0172 44.4797 99.0506 44.4355C99.1241 44.3394 99.2007 44.2469 99.2793 44.1585C99.3148 44.1189 99.3498 44.0783 99.3862 44.0403C99.4849 43.9364 99.5872 43.8388 99.6931 43.7483C99.71 43.7339 99.7255 43.717 99.7424 43.7031C99.8653 43.6008 99.9933 43.5093 100.124 43.4255C100.166 43.3988 100.21 43.3757 100.253 43.351C100.335 43.3032 100.418 43.258 100.503 43.2179C100.553 43.1948 100.603 43.1737 100.654 43.1531C100.737 43.1192 100.821 43.0894 100.906 43.0637C100.988 43.0385 101.07 43.0113 101.154 42.9938L114.837 40.1129C114.987 40.0811 115.136 40.0651 115.284 40.059C115.404 40.0523 115.526 40.0533 115.645 40.0651Z" fill="#1865ED"/>
<path d="M114.834 40.1109C116.852 39.6859 118.642 41.6184 118.812 44.4078L119.961 63.2946C120.131 66.084 118.618 68.7115 116.601 69.1365L102.919 72.0174C100.898 72.443 99.1075 70.5104 98.9379 67.7215L97.7886 48.8348C97.619 46.0454 99.1317 43.4179 101.153 42.9923L114.834 40.1109Z" fill="#0090FF"/>
<path d="M140.666 148.326C140.601 149.381 140.507 150.514 139.836 151.331C139.045 152.295 137.694 152.539 136.46 152.721C134.663 152.985 132.866 153.249 131.068 153.513C130.976 153.779 131.287 154.002 131.553 154.092C132.882 154.542 134.33 154.345 135.725 154.201C137.343 154.032 138.968 153.939 140.594 153.923C141.318 153.916 142.176 153.851 142.543 153.228C142.817 152.762 142.692 152.179 142.628 151.642C142.432 150.009 142.891 148.345 142.658 146.716C142.631 146.528 142.57 146.311 142.393 146.244C142.302 146.21 142.202 146.224 142.108 146.243C140.733 146.521 140.743 147.09 140.666 148.326Z" fill="#F9CCDA"/>
<path d="M141.158 152.559C139.819 153.378 138.458 153.599 136.9 153.405C136.805 153.393 136.282 153.278 136.186 153.268C136.131 152.969 136.161 152.676 135.916 152.686C134.79 152.729 133.665 152.823 132.548 152.967C132.193 153.013 130.845 153.045 130.702 153.321C130.575 153.567 130.657 153.882 130.836 154.093C131.015 154.304 131.273 154.431 131.532 154.529C132.809 155.016 134.219 154.959 135.584 154.894C137.262 154.815 138.941 154.736 140.619 154.657C141.192 154.63 141.795 154.594 142.276 154.282C142.983 153.823 143.226 152.898 143.243 152.054C143.275 150.52 141.642 152.264 141.158 152.559Z" fill="#0090FF"/>
<path d="M114.373 151.144C114.169 152.182 113.927 153.292 113.155 154.014C112.244 154.865 110.873 154.93 109.626 154.948C107.809 154.973 105.992 154.999 104.176 155.024C104.05 155.276 104.329 155.537 104.581 155.662C105.839 156.283 107.3 156.278 108.703 156.318C110.328 156.363 111.951 156.485 113.565 156.682C114.284 156.77 115.143 156.819 115.59 156.249C115.922 155.824 115.875 155.228 115.881 154.689C115.902 153.043 116.577 151.454 116.559 149.809C116.557 149.619 116.525 149.396 116.358 149.306C116.274 149.26 116.172 149.261 116.075 149.268C114.676 149.363 114.611 149.929 114.373 151.144Z" fill="#F9CCDA"/>
<path d="M144.303 97.6918C144.303 97.6918 143.086 110.159 142.63 117.005C142.173 123.85 146.637 138.421 146.485 142.376C146.333 146.331 145.42 148.612 145.42 148.612L135.843 148.528L132.589 98.7567L144.303 97.6918Z" fill="#0090FF"/>
<path d="M134.958 56.8513C134.409 58.2416 133.698 59.2644 133.371 59.1349C133.043 59.0054 133.223 57.7734 133.773 56.3831C134.322 54.9922 135.033 53.9699 135.36 54.0994C135.688 54.2285 135.508 55.461 134.958 56.8513Z" stroke="#0090FF" stroke-miterlimit="10"/>
<path d="M146.467 64.5342C148.377 60.7942 146.894 56.2139 143.154 54.304C139.413 52.3941 134.833 53.8777 132.923 57.6178C131.013 61.3578 132.497 65.9381 136.237 67.848C139.977 69.7579 144.557 68.2743 146.467 64.5342Z" fill="#F9CCDA"/>
<path d="M137.641 64.7414L135.993 73.1676L140.641 74.9105L142.473 64.4299L137.641 64.7414Z" fill="#F9CCDA"/>
<path d="M144.703 95.9031C144.703 95.9031 130.602 96.8416 126.13 98.5352C123.819 105.575 113.841 146.181 112.874 150.399C114.386 150.731 120.88 151.687 120.88 151.687C120.88 151.687 125.036 147.364 129.099 133.84C133.395 119.537 143.027 103.761 143.758 102.601C144.877 100.824 144.703 95.9031 144.703 95.9031Z" fill="#0090FF"/>
<path d="M99.5378 63.6498C99.4577 63.3424 99.3507 63.0165 99.0968 62.8253C98.772 62.5807 98.3079 62.6357 97.9311 62.7889C97.5544 62.942 97.211 63.1805 96.8173 63.2843C96.1106 63.4704 95.2718 63.218 94.6864 63.6559C94.3451 63.9114 94.1827 64.3827 94.2932 64.7944C94.3507 65.0072 94.4715 65.1969 94.5615 65.3978C94.8668 66.085 94.8118 66.9228 95.2564 67.5298C95.5941 67.9909 96.1528 68.2232 96.6837 68.4349C97.9697 68.9474 99.2562 69.4598 100.542 69.9723C100.625 70.0052 100.719 70.0381 100.8 69.9985C100.867 69.9651 100.902 69.8911 100.93 69.8212C101.468 68.4812 101.238 67.8336 100.562 66.7486C99.9773 65.8085 99.8128 64.7045 99.5378 63.6498Z" fill="#F9CCDA"/>
<path d="M114.303 155.405C112.867 156.04 111.489 156.081 109.971 155.684C109.878 155.66 109.374 155.477 109.281 155.454C109.266 155.15 109.334 154.865 109.09 154.841C107.968 154.737 106.841 154.682 105.714 154.678C105.356 154.677 104.016 154.531 103.838 154.786C103.68 155.013 103.72 155.336 103.869 155.569C104.019 155.802 104.259 155.961 104.502 156.092C105.704 156.743 107.11 156.871 108.471 156.987C110.145 157.129 111.819 157.271 113.493 157.413C114.065 157.461 114.667 157.504 115.185 157.259C115.947 156.897 116.31 156.011 116.438 155.178C116.67 153.662 114.822 155.176 114.303 155.405Z" fill="#0090FF"/>
<path d="M98.6783 60.1953C98.5832 59.9553 98.4532 59.6937 98.2085 59.612C97.915 59.5138 97.5933 59.7394 97.4735 60.0247C97.3537 60.3099 97.3831 60.6327 97.4144 60.9401C97.5008 61.7923 97.5876 62.645 97.674 63.4971C97.7233 63.9818 97.8312 64.5524 98.2753 64.7528C98.6063 64.9019 99.0206 64.7595 99.2498 64.4778C99.6908 63.9356 99.3989 63.3018 99.31 62.7C99.184 61.8396 98.9985 61.0064 98.6783 60.1953Z" fill="#F9CCDA"/>
<path d="M142.991 74.4253C142.731 72.6048 141.146 71.2705 139.307 71.3296C135.387 71.4555 129.452 71.8919 128.479 72.409C127.266 73.0535 119.032 75.5782 116.507 75.5782C113.982 75.5782 103.515 66.0973 103.515 66.0973L98.3958 71.6128C98.3958 71.6128 107.745 83.3486 111.24 84.7076C114.736 86.067 125.71 85.9879 125.71 85.9879L126.215 98.6318C126.215 98.6318 142.537 101.934 144.09 99.2157C145.644 96.4973 144.673 86.2017 144.673 86.2017L142.991 74.4253Z" fill="#F6A091"/>
<path d="M125.71 85.9879L132.589 84.8654L126.125 96.3806L125.71 85.9879Z" fill="url(#paint0_linear_344_1248)"/>
<path d="M132.896 58.148C132.346 59.5384 131.635 60.5612 131.308 60.4317C130.981 60.3022 131.16 59.0701 131.71 57.6798C132.259 56.2895 132.97 55.2667 133.298 55.3962C133.625 55.5252 133.445 56.7572 132.896 58.148Z" stroke="#0090FF" stroke-miterlimit="10"/>
<path d="M131.627 57.7909C131.93 57.87 139.915 60.8429 139.915 60.8429" stroke="#0090FF" stroke-width="0.75" stroke-miterlimit="10"/>
<path d="M138.758 58.4678C139.046 59.3843 138.455 60.5854 139.159 61.2397C139.55 61.6041 140.151 61.5774 140.67 61.7054C141.612 61.9372 142.368 62.7904 142.486 63.7531C142.603 64.7163 142.074 65.7258 141.216 66.1776C140.958 66.3132 140.669 66.4068 140.46 66.6108C140.065 66.9989 140.096 67.6522 140.285 68.1733C140.474 68.6945 140.79 69.1725 140.891 69.7179C141.071 70.7016 140.521 71.6489 140.163 72.5828C139.011 75.586 139.812 78.9839 141.041 81.9568C141.971 84.208 143.177 86.4084 145.005 88.0192C146.832 89.6295 149.372 90.5763 151.746 90.033C154.121 89.4897 156.123 87.2097 155.899 84.7842C155.816 83.8822 155.455 83.0336 155.126 82.1896C154.189 79.7842 153.491 77.0478 154.494 74.6691C155.03 73.3959 156.029 72.3027 156.259 70.9401C156.555 69.1802 155.456 67.445 154.051 66.3441C152.646 65.2437 150.945 64.6027 149.387 63.7315C147.829 62.8608 146.325 61.6401 145.802 59.9337C145.431 58.7238 145.593 57.3895 145.155 56.2022C144.562 54.5965 142.917 53.5341 141.221 53.3023C139.857 53.1157 136.396 53.3887 135.736 54.9661C134.981 56.7748 138.297 57.0004 138.758 58.4678Z" fill="#0090FF"/>
<path d="M151.894 66.6154C152.726 65.3068 152.843 63.3563 151.648 62.3684C151.148 61.9551 150.483 61.7604 150.032 61.2937C149.321 60.5587 149.351 59.413 149.195 58.402C148.902 56.5033 147.762 54.7532 146.148 53.7099C144.535 52.6665 142.476 52.3442 140.618 52.8351C140.176 52.9522 139.718 53.1332 139.456 53.5079C139.038 54.1056 139.292 54.9624 139.771 55.5124C140.25 56.0624 140.91 56.4185 141.456 56.9017C142.908 58.1846 143.412 60.1917 144.121 61.9947C144.991 64.21 146.274 66.2577 147.873 68.0201C150.065 70.4379 150.525 68.7664 151.894 66.6154Z" fill="#0090FF"/>
<path d="M158.118 76.0404C158.704 77.3176 158.789 78.7932 158.494 80.1671C158.225 81.4151 157.649 82.5957 156.83 83.5759C156.463 84.0163 156.034 84.425 155.505 84.647C154.899 84.9009 154.217 84.887 153.563 84.8336C151.319 84.6496 148.876 83.8596 147.799 81.8823C146.568 79.6228 147.186 73.4108 150.168 72.6095C152.799 71.9018 157.001 73.6077 158.118 76.0404Z" fill="#0090FF"/>
<path d="M170.944 28.1311C169.995 25.4887 167.475 23.5947 164.506 23.5947C163.153 23.5947 161.896 23.992 160.834 24.6694C159.492 21.068 156.022 18.5027 151.953 18.5027C148.202 18.5027 144.96 20.6825 143.425 23.8445C142.847 23.6867 142.242 23.5947 141.615 23.5947C138.647 23.5947 136.126 25.4882 135.178 28.1311H170.944Z" fill="#AFC6F5"/>
<path d="M35.7665 35.8408C34.8182 33.1984 32.2976 31.3044 29.3288 31.3044C27.976 31.3044 26.7188 31.7017 25.657 32.3791C24.3144 28.7782 20.8451 26.2129 16.7759 26.2129C13.0248 26.2129 9.78313 28.3927 8.24736 31.5547C7.67015 31.3969 7.0652 31.3049 6.43762 31.3049C3.46886 31.3049 0.948297 33.1984 0 35.8413H35.7665V35.8408Z" fill="#AFC6F5"/>
<path d="M28.9341 112.566C28.6735 115.094 29.9323 118.202 28.0064 119.859C26.853 120.852 25.035 120.731 23.8755 121.716C21.9188 123.38 23.2125 126.584 24.8397 128.571C26.467 130.557 28.4597 133.02 27.4508 135.382C26.9388 136.58 25.7613 137.347 25.0129 138.413C23.3507 140.782 24.1515 144.169 25.896 146.477C30.3912 152.427 39.8064 152.785 46.1289 148.831C48.4222 147.397 50.5034 145.377 51.2579 142.78C52.0124 140.183 51.0729 136.981 48.651 135.777C47.6723 135.291 46.4146 135.048 45.951 134.058C45.1574 132.366 47.3902 130.983 48.7795 129.733C51.4064 127.369 51.1906 122.583 48.3616 120.466C47.163 119.568 45.5404 119.016 44.977 117.629C44.5771 116.645 44.8501 115.536 44.8675 114.474C45.0002 106.442 29.7878 104.284 28.9341 112.566Z" fill="#5BB59B"/>
<path d="M36.9184 117.583H36.5042V150.751H36.9184V117.583Z" fill="#0090FF"/>
<path d="M36.7004 130.684L29.6748 124.783L29.9416 124.466L36.722 130.161L45.1508 124.179L45.3903 124.517L36.7004 130.684Z" fill="#0090FF"/>
<path d="M36.7004 144.766L29.6748 138.865L29.9416 138.548L36.722 144.243L45.1508 138.261L45.3903 138.599L36.7004 144.766Z" fill="#0090FF"/>
<defs>
<linearGradient id="paint0_linear_344_1248" x1="129.77" y1="93.5537" x2="128.578" y2="85.0902" gradientUnits="userSpaceOnUse">
<stop stop-color="#D37897" stop-opacity="0"/>
<stop offset="0.9368" stop-color="#E26356" stop-opacity="0.7"/>
</linearGradient>
</defs>
</svg>
